# xmcd
#
# Track frame offsets: 
#        150
#        16917
#        31902
#        42715
#        65995
#        82415
#        101640
#        120490
#        136205
#        159525
#        180400
#
# Disc length: 2585 seconds
#
# Revision: 4
# Processed by: cddbd v1.5.2PL0 Copyright (c) Steve Scherf et al.
# Submitted via: ExactAudioCopy v1.0b3
#
DISCID=960a170b
DTITLE=Billy Ray Cyrus - Trail Of Tears
DYEAR=1996
DGENRE=Country
TTITLE0=Trail Of Tears
TTITLE1=Truth Is I Lied
TTITLE2=Tenntucky
TTITLE3=Call Me Daddy
TTITLE4=Sing Me Back Home
TTITLE5=Three Little Words
TTITLE6=Harper Valley P.T.A.
TTITLE7=I Am Here Now
TTITLE8=Need A Little Help
TTITLE9=Should I Stay
TTITLE10=Crazy Mama
EXTD=YEAR: 1996 ID3G: 2
EXTT0=
EXTT1=
EXTT2=
EXTT3=
EXTT4=
EXTT5=
EXTT6=
EXTT7=
EXTT8=
EXTT9=
EXTT10=
PLAYORDER=
